<svg width="512" height="512" version="1.1" xmlns="http://www.w3.org/2000/svg"><path fill="rgb(0,0,0)" stroke="rgb(0,0,0)" stroke-width="1" opacity="0" d="M 0 0 L 100 0.5 L 94 4.5 L 91 9.5 L 91 249 Q 83 244.2 71.5 242 L 50.5 242 Q 27.6 246.6 15 261.5 Q 3.9 272.4 0.5 291 L 0 0 Z "></path><path fill="rgb(0,0,0)" stroke="rgb(0,0,0)" stroke-width="1" opacity="0" d="M 112.5 0 L 511.5 0 L 512 0.5 L 512 130.5 L 511 130.5 L 507.5 125 Q 503.1 119.9 491.5 122 L 281.5 182 L 275 186.5 L 272 191.5 L 272 399 Q 264 394.2 252.5 392 L 231.5 392 Q 206.7 397.2 194 414.5 L 184 433.5 L 182 441.5 L 182 462.5 Q 187.2 487.3 204.5 500 L 220.5 509 L 231 511.5 L 0 512 L 0.5 313 Q 4.9 334.1 18.5 346 Q 28 355.5 42.5 360 L 50.5 362 L 71.5 362 Q 95.3 356.8 108 340.5 Q 117.8 329.8 121 312.5 L 121.5 66 L 150.5 97 Q 170.3 115.7 193.5 131 L 203 140.5 Q 208.7 147.8 211 158.5 L 211 175.5 Q 206.6 193.6 193.5 203 L 179.5 210 L 161.5 212 L 155 216.5 Q 149.9 220.9 152 232.5 L 156.5 239 L 161.5 242 L 178.5 242 Q 210.7 235.7 227 213.5 Q 236.6 201.6 241 184.5 Q 239.8 179.8 242 178.5 L 242 155.5 Q 236.6 126.9 218.5 111 Q 182.9 86.6 154 55.5 L 138 35.5 L 116.5 3 Q 111.8 2.2 112.5 0 Z "></path><path fill="rgb(0,0,0)" stroke="rgb(0,0,0)" stroke-width="1" opacity="0" d="M 478.5 218 L 482 218.5 L 482 339 Q 474 334.2 462.5 332 L 441.5 332 Q 416.7 337.2 404 354.5 L 394 373.5 L 392 381.5 L 392 402.5 Q 397.2 427.3 414.5 440 L 433.5 450 L 441.5 452 L 462.5 452 Q 487.3 446.8 500 429.5 L 509 413.5 L 511.5 403 L 512 512 L 253 511.5 Q 277.6 506.6 290 489.5 Q 298.8 478.8 302 462.5 L 302 269 L 478.5 218 Z "></path><path fill="rgb(253,170,46)" stroke="rgb(253,170,46)" stroke-width="1" opacity="0.8980392156862745" d="M 102.5 0 L 105 0.5 L 102.5 1 L 102.5 0 Z "></path><path fill="rgb(253,170,46)" stroke="rgb(253,170,46)" stroke-width="1" opacity="0.8980392156862745" d="M 99.5 1 L 98.5 3 L 99.5 1 Z "></path><path fill="rgb(253,170,46)" stroke="rgb(253,170,46)" stroke-width="1" opacity="0.8980392156862745" d="M 96.5 3 L 94.5 6 L 96.5 3 Z "></path><path fill="rgb(253,170,46)" stroke="rgb(253,170,46)" stroke-width="1" opacity="0.8980392156862745" d="M 93.5 7 L 93 8.5 L 92.5 10 L 92 8.5 L 93.5 7 Z "></path><path fill="rgb(253,170,46)" stroke="rgb(253,170,46)" stroke-width="1" opacity="0.8980392156862745" d="M 91.5 11 L 92 13.5 L 91 13.5 L 91.5 11 Z "></path><path fill="rgb(253,170,46)" stroke="rgb(253,170,46)" stroke-width="1" opacity="0.8980392156862745" d="M 147.5 48 L 148.5 50 L 147.5 48 Z "></path><path fill="rgb(253,170,46)" stroke="rgb(253,170,46)" stroke-width="1" opacity="0.8980392156862745" d="M 153.5 55 L 155.5 58 L 153.5 55 Z "></path><path fill="rgb(253,170,46)" stroke="rgb(253,170,46)" stroke-width="1" opacity="0.8980392156862745" d="M 130.5 75 L 133.5 79 L 130.5 75 Z "></path><path fill="rgb(253,170,46)" stroke="rgb(253,170,46)" stroke-width="1" opacity="0.8980392156862745" d="M 173.5 75 L 175.5 78 L 173.5 75 Z "></path><path fill="rgb(253,170,46)" stroke="rgb(253,170,46)" stroke-width="1" opacity="0.8980392156862745" d="M 182.5 83 L 183.5 85 L 182.5 83 Z "></path><path fill="rgb(253,170,46)" stroke="rgb(253,170,46)" stroke-width="1" opacity="0.8980392156862745" d="M 188.5 88 L 189.5 90 L 188.5 88 Z "></path><path fill="rgb(253,170,46)" stroke="rgb(253,170,46)" stroke-width="1" opacity="0.8980392156862745" d="M 149.5 94 L 153.5 99 L 149.5 94 Z "></path><path fill="rgb(253,170,46)" stroke="rgb(253,170,46)" stroke-width="1" opacity="0.8980392156862745" d="M 198.5 96 L 199.5 98 L 198.5 96 Z "></path><path fill="rgb(253,170,46)" stroke="rgb(253,170,46)" stroke-width="1" opacity="0.8980392156862745" d="M 160.5 104 L 161.5 106 L 160.5 104 Z "></path><path fill="rgb(253,170,46)" stroke="rgb(253,170,46)" stroke-width="1" opacity="0.8980392156862745" d="M 166.5 109 L 167.5 111 L 166.5 109 Z "></path><path fill="rgb(253,170,46)" stroke="rgb(253,170,46)" stroke-width="1" opacity="0.8980392156862745" d="M 216.5 110 L 223.5 118 L 216.5 110 Z "></path><path fill="rgb(253,170,46)" stroke="rgb(253,170,46)" stroke-width="1" opacity="0.8980392156862745" d="M 226.5 121 L 227.5 123 L 226.5 121 Z "></path><path fill="rgb(253,170,46)" stroke="rgb(253,170,46)" stroke-width="1" opacity="0.8980392156862745" d="M 241.5 158 L 242 160.5 L 241 160.5 L 241.5 158 Z "></path><path fill="rgb(253,170,46)" stroke="rgb(253,170,46)" stroke-width="1" opacity="0.8980392156862745" d="M 203.5 193 L 202.5 195 L 203.5 193 Z "></path><path fill="rgb(253,170,46)" stroke="rgb(253,170,46)" stroke-width="1" opacity="0.8980392156862745" d="M 194.5 202 L 193.5 204 L 194.5 202 Z "></path><path fill="rgb(253,170,46)" stroke="rgb(253,170,46)" stroke-width="1" opacity="0.8980392156862745" d="M 158.5 214 L 157.5 216 L 158.5 214 Z "></path><path fill="rgb(253,170,46)" stroke="rgb(253,170,46)" stroke-width="1" opacity="0.8980392156862745" d="M 155.5 217 L 154.5 219 L 155.5 217 Z "></path><path fill="rgb(253,170,46)" stroke="rgb(253,170,46)" stroke-width="1" opacity="0.8980392156862745" d="M 222.5 217 L 217.5 223 L 222.5 217 Z "></path><path fill="rgb(253,170,46)" stroke="rgb(253,170,46)" stroke-width="1" opacity="0.8980392156862745" d="M 154.5 235 L 155.5 237 L 154.5 235 Z "></path><path fill="rgb(253,170,46)" stroke="rgb(253,170,46)" stroke-width="1" opacity="0.8980392156862745" d="M 157.5 238 L 158.5 240 L 157.5 238 Z "></path><path fill="rgb(254,168,50)" stroke="rgb(254,168,50)" stroke-width="1" opacity="1" d="M 105.5 0 L 106 261.5 L 98.5 255 L 91 249.5 L 91 14.5 Q 92.2 6.7 97.5 3 L 105.5 0 Z "></path><path fill="rgb(254,171,0)" stroke="rgb(254,171,0)" stroke-width="1" opacity="0.996078431372549" d="M 106 0 Q 113.8 0.4 118 5.5 L 143 43.5 L 175.5 78 L 212.5 107 L 226 120.5 Q 234.6 130.9 239 145.5 L 242 161.5 L 242 173.5 L 239 188.5 L 231 206.5 L 213.5 226 Q 203.1 234.6 188.5 239 L 173.5 242 L 164.5 242 L 156 238 L 152 229.5 L 152 224.5 L 156 216 L 164.5 212 L 174.5 212 L 184.5 209 Q 196.8 203.8 204 193.5 Q 209.7 185.7 212 174.5 L 212 159.5 Q 207.7 139.8 193.5 130 Q 160.6 107.9 134 79.5 L 121.5 65 L 121 309.5 Q 116.5 335 99.5 348 Q 90.5 356 77.5 360 L 67.5 362 L 54.5 362 L 36.5 357 Q 25.2 351.8 17 343.5 Q 8.7 335.3 4 323.5 L 0 308.5 L 0 295.5 Q 4.1 272.1 18.5 259 Q 27.9 249.9 41.5 245 L 54.5 242 L 67.5 242 L 77.5 244 L 91.5 250 L 105.5 262 L 106 0 Z "></path><path fill="rgb(0,237,207)" stroke="rgb(0,237,207)" stroke-width="1" opacity="0.48627450980392156" d="M 501.5 122 L 506 124.5 L 504.5 124 Q 500.7 123.7 501.5 122 Z "></path><path fill="rgb(0,237,207)" stroke="rgb(0,237,207)" stroke-width="1" opacity="0.48627450980392156" d="M 507.5 125 L 508.5 127 L 507.5 125 Z "></path><path fill="rgb(0,237,207)" stroke="rgb(0,237,207)" stroke-width="1" opacity="0.48627450980392156" d="M 509.5 128 L 510.5 130 L 509.5 128 Z "></path><path fill="rgb(0,237,207)" stroke="rgb(0,237,207)" stroke-width="1" opacity="0.48627450980392156" d="M 386.5 152 L 389 152.5 L 383.5 154 L 383.5 153 L 386.5 152 Z "></path><path fill="rgb(0,237,207)" stroke="rgb(0,237,207)" stroke-width="1" opacity="0.48627450980392156" d="M 379.5 154 L 382 154.5 L 376.5 156 L 376.5 155 L 379.5 154 Z "></path><path fill="rgb(0,237,207)" stroke="rgb(0,237,207)" stroke-width="1" opacity="0.48627450980392156" d="M 372.5 156 L 375 156.5 L 369.5 158 L 369.5 157 L 372.5 156 Z "></path><path fill="rgb(0,237,207)" stroke="rgb(0,237,207)" stroke-width="1" opacity="0.48627450980392156" d="M 365.5 158 L 368 158.5 L 362.5 160 L 362.5 159 L 365.5 158 Z "></path><path fill="rgb(0,237,207)" stroke="rgb(0,237,207)" stroke-width="1" opacity="0.48627450980392156" d="M 358.5 160 L 361 160.5 L 355.5 162 L 355.5 161 L 358.5 160 Z "></path><path fill="rgb(0,237,207)" stroke="rgb(0,237,207)" stroke-width="1" opacity="0.48627450980392156" d="M 351.5 162 L 354 162.5 L 348.5 164 L 348.5 163 L 351.5 162 Z "></path><path fill="rgb(0,237,207)" stroke="rgb(0,237,207)" stroke-width="1" opacity="0.48627450980392156" d="M 344.5 164 L 347 164.5 L 341.5 166 L 341.5 165 L 344.5 164 Z "></path><path fill="rgb(0,237,207)" stroke="rgb(0,237,207)" stroke-width="1" opacity="0.48627450980392156" d="M 337.5 166 L 340 166.5 L 334.5 168 L 334.5 167 L 337.5 166 Z "></path><path fill="rgb(0,237,207)" stroke="rgb(0,237,207)" stroke-width="1" opacity="0.48627450980392156" d="M 330.5 168 L 333 168.5 L 327.5 170 L 327.5 169 L 330.5 168 Z "></path><path fill="rgb(0,237,207)" stroke="rgb(0,237,207)" stroke-width="1" opacity="0.48627450980392156" d="M 323.5 170 L 326 170.5 L 320.5 172 L 320.5 171 L 323.5 170 Z "></path><path fill="rgb(0,237,207)" stroke="rgb(0,237,207)" stroke-width="1" opacity="0.48627450980392156" d="M 316.5 172 L 319 172.5 L 313.5 174 L 313.5 173 L 316.5 172 Z "></path><path fill="rgb(0,237,207)" stroke="rgb(0,237,207)" stroke-width="1" opacity="0.48627450980392156" d="M 309.5 174 L 312 174.5 L 306.5 176 L 306.5 175 L 309.5 174 Z "></path><path fill="rgb(0,237,207)" stroke="rgb(0,237,207)" stroke-width="1" opacity="0.48627450980392156" d="M 302.5 176 L 305 176.5 L 299.5 178 L 299.5 177 L 302.5 176 Z "></path><path fill="rgb(0,237,207)" stroke="rgb(0,237,207)" stroke-width="1" opacity="0.48627450980392156" d="M 295.5 178 L 298 178.5 L 292.5 180 L 292.5 179 L 295.5 178 Z "></path><path fill="rgb(0,237,207)" stroke="rgb(0,237,207)" stroke-width="1" opacity="0.48627450980392156" d="M 288.5 180 L 291 180.5 L 285.5 182 L 285.5 181 L 288.5 180 Z "></path><path fill="rgb(0,237,207)" stroke="rgb(0,237,207)" stroke-width="1" opacity="0.48627450980392156" d="M 281.5 182 L 284 182.5 Q 276.9 183.9 274 189.5 L 272.5 194 L 272 191.5 L 276.5 185 L 281.5 182 Z "></path><path fill="rgb(0,237,207)" stroke="rgb(0,237,207)" stroke-width="1" opacity="0.48627450980392156" d="M 392.5 242 L 395 242.5 L 392.5 243 L 392.5 242 Z "></path><path fill="rgb(0,237,207)" stroke="rgb(0,237,207)" stroke-width="1" opacity="0.48627450980392156" d="M 388.5 243 L 391 243.5 L 385.5 245 L 385.5 244 L 388.5 243 Z "></path><path fill="rgb(0,237,207)" stroke="rgb(0,237,207)" stroke-width="1" opacity="0.48627450980392156" d="M 381.5 245 L 384 245.5 L 378.5 247 L 378.5 246 L 381.5 245 Z "></path><path fill="rgb(0,237,207)" stroke="rgb(0,237,207)" stroke-width="1" opacity="0.48627450980392156" d="M 374.5 247 L 377 247.5 L 371.5 249 L 371.5 248 L 374.5 247 Z "></path><path fill="rgb(0,237,207)" stroke="rgb(0,237,207)" stroke-width="1" opacity="0.48627450980392156" d="M 367.5 249 L 370 249.5 L 364.5 251 L 364.5 250 L 367.5 249 Z "></path><path fill="rgb(0,237,207)" stroke="rgb(0,237,207)" stroke-width="1" opacity="0.48627450980392156" d="M 360.5 251 L 363 251.5 L 357.5 253 L 357.5 252 L 360.5 251 Z "></path><path fill="rgb(0,237,207)" stroke="rgb(0,237,207)" stroke-width="1" opacity="0.48627450980392156" d="M 353.5 253 L 356 253.5 L 350.5 255 L 350.5 254 L 353.5 253 Z "></path><path fill="rgb(0,237,207)" stroke="rgb(0,237,207)" stroke-width="1" opacity="0.48627450980392156" d="M 346.5 255 L 349 255.5 L 343.5 257 L 343.5 256 L 346.5 255 Z "></path><path fill="rgb(0,237,207)" stroke="rgb(0,237,207)" stroke-width="1" opacity="0.48627450980392156" d="M 339.5 257 L 342 257.5 L 336.5 259 L 336.5 258 L 339.5 257 Z "></path><path fill="rgb(0,237,207)" stroke="rgb(0,237,207)" stroke-width="1" opacity="0.48627450980392156" d="M 332.5 259 L 335 259.5 L 329.5 261 L 329.5 260 L 332.5 259 Z "></path><path fill="rgb(0,237,207)" stroke="rgb(0,237,207)" stroke-width="1" opacity="0.48627450980392156" d="M 325.5 261 L 328 261.5 L 322.5 263 L 322.5 262 L 325.5 261 Z "></path><path fill="rgb(0,237,207)" stroke="rgb(0,237,207)" stroke-width="1" opacity="0.48627450980392156" d="M 318.5 263 L 321 263.5 L 315.5 265 L 315.5 264 L 318.5 263 Z "></path><path fill="rgb(0,237,207)" stroke="rgb(0,237,207)" stroke-width="1" opacity="0.48627450980392156" d="M 311.5 265 L 314 265.5 L 308.5 267 L 308.5 266 L 311.5 265 Z "></path><path fill="rgb(0,237,207)" stroke="rgb(0,237,207)" stroke-width="1" opacity="0.48627450980392156" d="M 304.5 267 L 307 267.5 L 302.5 269 L 302.5 268 L 304.5 267 Z "></path><path fill="rgb(0,237,207)" stroke="rgb(0,237,207)" stroke-width="1" opacity="0.48627450980392156" d="M 441.5 332 L 445 332.5 L 441.5 333 L 441.5 332 Z "></path><path fill="rgb(0,237,207)" stroke="rgb(0,237,207)" stroke-width="1" opacity="0.48627450980392156" d="M 459.5 332 L 463 332.5 L 459.5 333 L 459.5 332 Z "></path><path fill="rgb(0,237,207)" stroke="rgb(0,237,207)" stroke-width="1" opacity="0.48627450980392156" d="M 430.5 335 L 432 335.5 L 428.5 337 L 428.5 336 L 430.5 335 Z "></path><path fill="rgb(0,237,207)" stroke="rgb(0,237,207)" stroke-width="1" opacity="0.48627450980392156" d="M 472.5 335 L 476 336.5 L 474.5 337 L 472.5 335 Z "></path><path fill="rgb(0,237,207)" stroke="rgb(0,237,207)" stroke-width="1" opacity="0.48627450980392156" d="M 422.5 339 L 421.5 341 Q 411.2 345.7 405 354.5 L 399.5 363 L 400 361.5 Q 405.1 350.6 414.5 344 L 422.5 339 Z "></path><path fill="rgb(0,237,207)" stroke="rgb(0,237,207)" stroke-width="1" opacity="0.48627450980392156" d="M 396.5 368 L 397 369.5 L 395.5 372 L 395 370.5 L 396.5 368 Z "></path><path fill="rgb(0,237,207)" stroke="rgb(0,237,207)" stroke-width="1" opacity="0.48627450980392156" d="M 511.5 380 L 512 384.5 L 511 384.5 L 511.5 380 Z "></path><path fill="rgb(0,237,207)" stroke="rgb(0,237,207)" stroke-width="1" opacity="0.48627450980392156" d="M 392.5 381 L 393 384.5 L 392 384.5 L 392.5 381 Z "></path><path fill="rgb(0,237,207)" stroke="rgb(0,237,207)" stroke-width="1" opacity="0.48627450980392156" d="M 231.5 392 L 236 392.5 L 231.5 393 L 231.5 392 Z "></path><path fill="rgb(0,237,207)" stroke="rgb(0,237,207)" stroke-width="1" opacity="0.48627450980392156" d="M 248.5 392 L 253 392.5 L 248.5 393 L 248.5 392 Z "></path><path fill="rgb(0,237,207)" stroke="rgb(0,237,207)" stroke-width="1" opacity="0.48627450980392156" d="M 227.5 393 L 230 393.5 L 227.5 394 L 227.5 393 Z "></path><path fill="rgb(0,237,207)" stroke="rgb(0,237,207)" stroke-width="1" opacity="0.48627450980392156" d="M 254.5 393 L 257 393.5 L 254.5 394 L 254.5 393 Z "></path><path fill="rgb(0,237,207)" stroke="rgb(0,237,207)" stroke-width="1" opacity="0.48627450980392156" d="M 223.5 394 L 226 394.5 L 214.5 399 L 214.5 398 L 223.5 394 Z "></path><path fill="rgb(0,237,207)" stroke="rgb(0,237,207)" stroke-width="1" opacity="0.48627450980392156" d="M 258.5 394 L 266 396.5 L 264.5 397 L 258.5 395 L 258.5 394 Z "></path><path fill="rgb(0,237,207)" stroke="rgb(0,237,207)" stroke-width="1" opacity="0.48627450980392156" d="M 212.5 399 L 211.5 401 Q 201.2 405.7 195 414.5 L 189.5 423 L 190 421.5 Q 195.1 410.6 204.5 404 L 212.5 399 Z "></path><path fill="rgb(0,237,207)" stroke="rgb(0,237,207)" stroke-width="1" opacity="0.48627450980392156" d="M 392.5 399 L 393 402.5 L 392 402.5 L 392.5 399 Z "></path><path fill="rgb(0,237,207)" stroke="rgb(0,237,207)" stroke-width="1" opacity="0.48627450980392156" d="M 511.5 399 L 512 402.5 L 511 402.5 L 511.5 399 Z "></path><path fill="rgb(0,237,207)" stroke="rgb(0,237,207)" stroke-width="1" opacity="0.48627450980392156" d="M 509.5 408 L 510 410.5 L 509 410.5 L 509.5 408 Z "></path><path fill="rgb(0,237,207)" stroke="rgb(0,237,207)" stroke-width="1" opacity="0.48627450980392156" d="M 395.5 412 L 397 415.5 L 396 415.5 L 395.5 412 Z "></path><path fill="rgb(0,237,207)" stroke="rgb(0,237,207)" stroke-width="1" opacity="0.48627450980392156" d="M 508.5 412 L 509 413.5 L 507.5 416 L 507 414.5 L 508.5 412 Z "></path><path fill="rgb(0,237,207)" stroke="rgb(0,237,207)" stroke-width="1" opacity="0.48627450980392156" d="M 399.5 421 Q 405.2 431.8 414.5 439 L 418 441.5 L 415.5 440 L 404 429.5 L 399.5 421 Z "></path><path fill="rgb(0,237,207)" stroke="rgb(0,237,207)" stroke-width="1" opacity="0.48627450980392156" d="M 504.5 421 L 504 422.5 Q 498.9 433.4 489.5 440 L 481.5 445 L 482.5 443 Q 492.8 438.3 499 429.5 L 504.5 421 Z "></path><path fill="rgb(0,237,207)" stroke="rgb(0,237,207)" stroke-width="1" opacity="0.48627450980392156" d="M 187.5 426 L 188 427.5 L 184.5 436 L 184 433.5 L 187.5 426 Z "></path><path fill="rgb(0,237,207)" stroke="rgb(0,237,207)" stroke-width="1" opacity="0.48627450980392156" d="M 183.5 437 L 184 439.5 L 183 439.5 L 183.5 437 Z "></path><path fill="rgb(0,237,207)" stroke="rgb(0,237,207)" stroke-width="1" opacity="0.48627450980392156" d="M 301.5 440 L 302 446.5 L 301 446.5 L 301.5 440 Z "></path><path fill="rgb(0,237,207)" stroke="rgb(0,237,207)" stroke-width="1" opacity="0.48627450980392156" d="M 182.5 441 L 183 445.5 L 182 445.5 L 182.5 441 Z "></path><path fill="rgb(0,237,207)" stroke="rgb(0,237,207)" stroke-width="1" opacity="0.48627450980392156" d="M 419.5 442 L 423 444.5 L 421.5 444 L 419.5 442 Z "></path><path fill="rgb(0,237,207)" stroke="rgb(0,237,207)" stroke-width="1" opacity="0.48627450980392156" d="M 428.5 447 L 436 449.5 L 433.5 450 L 428.5 448 L 428.5 447 Z "></path><path fill="rgb(0,237,207)" stroke="rgb(0,237,207)" stroke-width="1" opacity="0.48627450980392156" d="M 474.5 447 L 476 447.5 L 472.5 449 L 472.5 448 L 474.5 447 Z "></path><path fill="rgb(0,237,207)" stroke="rgb(0,237,207)" stroke-width="1" opacity="0.48627450980392156" d="M 468.5 449 L 471 449.5 L 468.5 450 L 468.5 449 Z "></path><path fill="rgb(0,237,207)" stroke="rgb(0,237,207)" stroke-width="1" opacity="0.48627450980392156" d="M 441.5 451 L 446 451.5 L 441.5 452 L 441.5 451 Z "></path><path fill="rgb(0,237,207)" stroke="rgb(0,237,207)" stroke-width="1" opacity="0.48627450980392156" d="M 458.5 451 L 463 451.5 L 458.5 452 L 458.5 451 Z "></path><path fill="rgb(0,237,207)" stroke="rgb(0,237,207)" stroke-width="1" opacity="0.48627450980392156" d="M 182.5 457 L 183 462.5 L 182 462.5 L 182.5 457 Z "></path><path fill="rgb(0,237,207)" stroke="rgb(0,237,207)" stroke-width="1" opacity="0.48627450980392156" d="M 301.5 457 L 302 462.5 L 301 462.5 L 301.5 457 Z "></path><path fill="rgb(0,237,207)" stroke="rgb(0,237,207)" stroke-width="1" opacity="0.48627450980392156" d="M 183.5 464 L 184 466.5 L 183 466.5 L 183.5 464 Z "></path><path fill="rgb(0,237,207)" stroke="rgb(0,237,207)" stroke-width="1" opacity="0.48627450980392156" d="M 300.5 464 L 301 466.5 L 300 466.5 L 300.5 464 Z "></path><path fill="rgb(0,237,207)" stroke="rgb(0,237,207)" stroke-width="1" opacity="0.48627450980392156" d="M 184.5 468 L 188 477.5 L 187 477.5 L 184 470.5 L 184.5 468 Z "></path><path fill="rgb(0,237,207)" stroke="rgb(0,237,207)" stroke-width="1" opacity="0.48627450980392156" d="M 299.5 468 L 300 470.5 L 295.5 480 L 295 478.5 L 299.5 468 Z "></path><path fill="rgb(0,237,207)" stroke="rgb(0,237,207)" stroke-width="1" opacity="0.48627450980392156" d="M 189.5 481 Q 195.5 491.5 204.5 499 L 213 504.5 L 211.5 504 Q 200.6 498.9 194 489.5 L 189.5 481 Z "></path><path fill="rgb(0,237,207)" stroke="rgb(0,237,207)" stroke-width="1" opacity="0.48627450980392156" d="M 294.5 481 L 294 482.5 Q 288.9 493.4 279.5 500 L 271.5 505 L 272.5 503 Q 282.8 498.3 289 489.5 L 294.5 481 Z "></path><path fill="rgb(0,237,207)" stroke="rgb(0,237,207)" stroke-width="1" opacity="0.48627450980392156" d="M 214.5 505 L 226 509.5 L 223.5 510 L 214.5 506 L 214.5 505 Z "></path><path fill="rgb(0,237,207)" stroke="rgb(0,237,207)" stroke-width="1" opacity="0.48627450980392156" d="M 266.5 506 L 268 506.5 L 258.5 510 L 258.5 509 L 266.5 506 Z "></path><path fill="rgb(0,237,207)" stroke="rgb(0,237,207)" stroke-width="1" opacity="0.48627450980392156" d="M 227.5 510 L 230 510.5 L 227.5 511 L 227.5 510 Z "></path><path fill="rgb(0,237,207)" stroke="rgb(0,237,207)" stroke-width="1" opacity="0.48627450980392156" d="M 254.5 510 L 257 510.5 L 254.5 511 L 254.5 510 Z "></path><path fill="rgb(0,237,207)" stroke="rgb(0,237,207)" stroke-width="1" opacity="0.48627450980392156" d="M 231.5 511 L 237 511.5 L 231.5 512 L 231.5 511 Z "></path><path fill="rgb(0,237,207)" stroke="rgb(0,237,207)" stroke-width="1" opacity="0.48627450980392156" d="M 247.5 511 L 253 511.5 L 247.5 512 L 247.5 511 Z "></path><path fill="rgb(254,176,14)" stroke="rgb(254,176,14)" stroke-width="1" opacity="0.2901960784313726" d="M 98.5 1 L 97.5 3 L 98.5 1 Z "></path><path fill="rgb(254,176,14)" stroke="rgb(254,176,14)" stroke-width="1" opacity="0.2901960784313726" d="M 113.5 1 L 114.5 3 L 113.5 1 Z "></path><path fill="rgb(254,176,14)" stroke="rgb(254,176,14)" stroke-width="1" opacity="0.2901960784313726" d="M 95.5 3 L 94.5 5 L 95.5 3 Z "></path><path fill="rgb(254,176,14)" stroke="rgb(254,176,14)" stroke-width="1" opacity="0.2901960784313726" d="M 116.5 3 L 118.5 6 L 116.5 3 Z "></path><path fill="rgb(254,176,14)" stroke="rgb(254,176,14)" stroke-width="1" opacity="0.2901960784313726" d="M 93.5 6 L 92.5 8 L 93.5 6 Z "></path><path fill="rgb(254,176,14)" stroke="rgb(254,176,14)" stroke-width="1" opacity="0.2901960784313726" d="M 119.5 7 L 120.5 9 L 119.5 7 Z "></path><path fill="rgb(254,176,14)" stroke="rgb(254,176,14)" stroke-width="1" opacity="0.2901960784313726" d="M 121.5 10 L 122.5 12 L 121.5 10 Z "></path><path fill="rgb(254,176,14)" stroke="rgb(254,176,14)" stroke-width="1" opacity="0.2901960784313726" d="M 123.5 13 L 124.5 15 L 123.5 13 Z "></path><path fill="rgb(254,176,14)" stroke="rgb(254,176,14)" stroke-width="1" opacity="0.2901960784313726" d="M 125.5 16 L 126.5 18 L 125.5 16 Z "></path><path fill="rgb(254,176,14)" stroke="rgb(254,176,14)" stroke-width="1" opacity="0.2901960784313726" d="M 128.5 21 L 129.5 23 L 128.5 21 Z "></path><path fill="rgb(254,176,14)" stroke="rgb(254,176,14)" stroke-width="1" opacity="0.2901960784313726" d="M 130.5 24 L 131.5 26 L 130.5 24 Z "></path><path fill="rgb(254,176,14)" stroke="rgb(254,176,14)" stroke-width="1" opacity="0.2901960784313726" d="M 132.5 27 L 133.5 29 L 132.5 27 Z "></path><path fill="rgb(254,176,14)" stroke="rgb(254,176,14)" stroke-width="1" opacity="0.2901960784313726" d="M 134.5 30 L 135.5 32 L 134.5 30 Z "></path><path fill="rgb(254,176,14)" stroke="rgb(254,176,14)" stroke-width="1" opacity="0.2901960784313726" d="M 136.5 33 L 137.5 35 L 136.5 33 Z "></path><path fill="rgb(254,176,14)" stroke="rgb(254,176,14)" stroke-width="1" opacity="0.2901960784313726" d="M 138.5 36 L 140.5 39 L 138.5 36 Z "></path><path fill="rgb(254,176,14)" stroke="rgb(254,176,14)" stroke-width="1" opacity="0.2901960784313726" d="M 141.5 40 L 143.5 43 L 141.5 40 Z "></path><path fill="rgb(254,176,14)" stroke="rgb(254,176,14)" stroke-width="1" opacity="0.2901960784313726" d="M 144.5 44 L 147.5 48 L 144.5 44 Z "></path><path fill="rgb(254,176,14)" stroke="rgb(254,176,14)" stroke-width="1" opacity="0.2901960784313726" d="M 149.5 50 L 153.5 55 L 149.5 50 Z "></path><path fill="rgb(254,176,14)" stroke="rgb(254,176,14)" stroke-width="1" opacity="0.2901960784313726" d="M 156.5 58 L 172.5 75 L 156.5 58 Z "></path><path fill="rgb(254,176,14)" stroke="rgb(254,176,14)" stroke-width="1" opacity="0.2901960784313726" d="M 121.5 65 L 123.5 68 L 121.5 65 Z "></path><path fill="rgb(254,176,14)" stroke="rgb(254,176,14)" stroke-width="1" opacity="0.2901960784313726" d="M 124.5 69 L 129.5 75 L 124.5 69 Z "></path><path fill="rgb(254,176,14)" stroke="rgb(254,176,14)" stroke-width="1" opacity="0.2901960784313726" d="M 175.5 76 L 181.5 83 L 175.5 76 Z "></path><path fill="rgb(254,176,14)" stroke="rgb(254,176,14)" stroke-width="1" opacity="0.2901960784313726" d="M 132.5 78 L 150.5 97 L 132.5 78 Z "></path><path fill="rgb(254,176,14)" stroke="rgb(254,176,14)" stroke-width="1" opacity="0.2901960784313726" d="M 184.5 84 L 187.5 88 L 184.5 84 Z "></path><path fill="rgb(254,176,14)" stroke="rgb(254,176,14)" stroke-width="1" opacity="0.2901960784313726" d="M 190.5 89 L 193.5 93 L 190.5 89 Z "></path><path fill="rgb(254,176,14)" stroke="rgb(254,176,14)" stroke-width="1" opacity="0.2901960784313726" d="M 195.5 93 L 197.5 96 L 195.5 93 Z "></path><path fill="rgb(254,176,14)" stroke="rgb(254,176,14)" stroke-width="1" opacity="0.2901960784313726" d="M 200.5 97 L 202.5 100 L 200.5 97 Z "></path><path fill="rgb(254,176,14)" stroke="rgb(254,176,14)" stroke-width="1" opacity="0.2901960784313726" d="M 154.5 99 L 159.5 105 L 154.5 99 Z "></path><path fill="rgb(254,176,14)" stroke="rgb(254,176,14)" stroke-width="1" opacity="0.2901960784313726" d="M 204.5 100 L 206.5 103 L 204.5 100 Z "></path><path fill="rgb(254,176,14)" stroke="rgb(254,176,14)" stroke-width="1" opacity="0.2901960784313726" d="M 208.5 103 L 210.5 106 L 208.5 103 Z "></path><path fill="rgb(254,176,14)" stroke="rgb(254,176,14)" stroke-width="1" opacity="0.2901960784313726" d="M 162.5 106 L 166.5 111 L 162.5 106 Z "></path><path fill="rgb(254,176,14)" stroke="rgb(254,176,14)" stroke-width="1" opacity="0.2901960784313726" d="M 212.5 106 L 215.5 110 L 212.5 106 Z "></path><path fill="rgb(254,176,14)" stroke="rgb(254,176,14)" stroke-width="1" opacity="0.2901960784313726" d="M 168.5 111 L 171.5 115 L 168.5 111 Z "></path><path fill="rgb(254,176,14)" stroke="rgb(254,176,14)" stroke-width="1" opacity="0.2901960784313726" d="M 218.5 111 L 222.5 116 L 218.5 111 Z "></path><path fill="rgb(254,176,14)" stroke="rgb(254,176,14)" stroke-width="1" opacity="0.2901960784313726" d="M 173.5 115 L 176.5 119 L 173.5 115 Z "></path><path fill="rgb(254,176,14)" stroke="rgb(254,176,14)" stroke-width="1" opacity="0.2901960784313726" d="M 224.5 118 L 227.5 122 L 224.5 118 Z "></path><path fill="rgb(254,176,14)" stroke="rgb(254,176,14)" stroke-width="1" opacity="0.2901960784313726" d="M 178.5 119 L 180.5 122 L 178.5 119 Z "></path><path fill="rgb(254,176,14)" stroke="rgb(254,176,14)" stroke-width="1" opacity="0.2901960784313726" d="M 182.5 122 L 184.5 125 L 182.5 122 Z "></path><path fill="rgb(254,176,14)" stroke="rgb(254,176,14)" stroke-width="1" opacity="0.2901960784313726" d="M 228.5 123 L 229.5 125 L 228.5 123 Z "></path><path fill="rgb(254,176,14)" stroke="rgb(254,176,14)" stroke-width="1" opacity="0.2901960784313726" d="M 186.5 125 L 188.5 128 L 186.5 125 Z "></path><path fill="rgb(254,176,14)" stroke="rgb(254,176,14)" stroke-width="1" opacity="0.2901960784313726" d="M 230.5 126 L 233 129.5 L 231 128.5 L 230.5 126 Z "></path><path fill="rgb(254,176,14)" stroke="rgb(254,176,14)" stroke-width="1" opacity="0.2901960784313726" d="M 190.5 128 L 192.5 131 L 190.5 128 Z "></path><path fill="rgb(254,176,14)" stroke="rgb(254,176,14)" stroke-width="1" opacity="0.2901960784313726" d="M 194.5 131 L 202.5 140 L 194.5 131 Z "></path><path fill="rgb(254,176,14)" stroke="rgb(254,176,14)" stroke-width="1" opacity="0.2901960784313726" d="M 203.5 141 L 204.5 143 L 203.5 141 Z "></path><path fill="rgb(254,176,14)" stroke="rgb(254,176,14)" stroke-width="1" opacity="0.2901960784313726" d="M 241.5 155 L 242 157.5 L 241 157.5 L 241.5 155 Z "></path><path fill="rgb(254,176,14)" stroke="rgb(254,176,14)" stroke-width="1" opacity="0.2901960784313726" d="M 211.5 161 L 212 172.5 L 211 172.5 L 211.5 161 Z "></path><path fill="rgb(254,176,14)" stroke="rgb(254,176,14)" stroke-width="1" opacity="0.2901960784313726" d="M 241.5 176 L 242 178.5 L 241 178.5 L 241.5 176 Z "></path><path fill="rgb(254,176,14)" stroke="rgb(254,176,14)" stroke-width="1" opacity="0.2901960784313726" d="M 240.5 182 L 241 184.5 L 240 184.5 L 240.5 182 Z "></path><path fill="rgb(254,176,14)" stroke="rgb(254,176,14)" stroke-width="1" opacity="0.2901960784313726" d="M 204.5 191 L 203.5 193 L 204.5 191 Z "></path><path fill="rgb(254,176,14)" stroke="rgb(254,176,14)" stroke-width="1" opacity="0.2901960784313726" d="M 201.5 195 L 195.5 202 L 201.5 195 Z "></path><path fill="rgb(254,176,14)" stroke="rgb(254,176,14)" stroke-width="1" opacity="0.2901960784313726" d="M 192.5 203 L 191.5 205 L 192.5 203 Z "></path><path fill="rgb(254,176,14)" stroke="rgb(254,176,14)" stroke-width="1" opacity="0.2901960784313726" d="M 232.5 204 L 231.5 206 L 232.5 204 Z "></path><path fill="rgb(254,176,14)" stroke="rgb(254,176,14)" stroke-width="1" opacity="0.2901960784313726" d="M 229.5 209 L 227.5 212 L 229.5 209 Z "></path><path fill="rgb(254,176,14)" stroke="rgb(254,176,14)" stroke-width="1" opacity="0.2901960784313726" d="M 167.5 211 L 173 211.5 L 167.5 212 L 167.5 211 Z "></path><path fill="rgb(254,176,14)" stroke="rgb(254,176,14)" stroke-width="1" opacity="0.2901960784313726" d="M 226.5 213 L 223.5 217 L 226.5 213 Z "></path><path fill="rgb(254,176,14)" stroke="rgb(254,176,14)" stroke-width="1" opacity="0.2901960784313726" d="M 156.5 215 L 155.5 217 L 156.5 215 Z "></path><path fill="rgb(254,176,14)" stroke="rgb(254,176,14)" stroke-width="1" opacity="0.2901960784313726" d="M 216.5 223 L 213.5 227 L 216.5 223 Z "></path><path fill="rgb(254,176,14)" stroke="rgb(254,176,14)" stroke-width="1" opacity="0.2901960784313726" d="M 211.5 227 L 209.5 230 L 211.5 227 Z "></path><path fill="rgb(254,176,14)" stroke="rgb(254,176,14)" stroke-width="1" opacity="0.2901960784313726" d="M 205.5 231 L 204.5 233 L 205.5 231 Z "></path><path fill="rgb(254,176,14)" stroke="rgb(254,176,14)" stroke-width="1" opacity="0.2901960784313726" d="M 155.5 237 L 156.5 239 L 155.5 237 Z "></path><path fill="rgb(254,176,14)" stroke="rgb(254,176,14)" stroke-width="1" opacity="0.2901960784313726" d="M 176.5 241 L 179 241.5 L 176.5 242 L 176.5 241 Z "></path><path fill="rgb(254,176,14)" stroke="rgb(254,176,14)" stroke-width="1" opacity="0.2901960784313726" d="M 50.5 242 L 54 242.5 L 50.5 243 L 50.5 242 Z "></path><path fill="rgb(254,176,14)" stroke="rgb(254,176,14)" stroke-width="1" opacity="0.2901960784313726" d="M 68.5 242 L 72 242.5 L 68.5 243 L 68.5 242 Z "></path><path fill="rgb(254,176,14)" stroke="rgb(254,176,14)" stroke-width="1" opacity="0.2901960784313726" d="M 74.5 243 L 77 243.5 L 74.5 244 L 74.5 243 Z "></path><path fill="rgb(254,176,14)" stroke="rgb(254,176,14)" stroke-width="1" opacity="0.2901960784313726" d="M 39.5 245 L 41 245.5 L 37.5 247 L 37.5 246 L 39.5 245 Z "></path><path fill="rgb(254,176,14)" stroke="rgb(254,176,14)" stroke-width="1" opacity="0.2901960784313726" d="M 81.5 245 L 85 246.5 L 83.5 247 L 81.5 245 Z "></path><path fill="rgb(254,176,14)" stroke="rgb(254,176,14)" stroke-width="1" opacity="0.2901960784313726" d="M 34.5 247 L 36 247.5 L 31.5 250 L 32.5 248 L 34.5 247 Z "></path><path fill="rgb(254,176,14)" stroke="rgb(254,176,14)" stroke-width="1" opacity="0.2901960784313726" d="M 29.5 250 L 28.5 252 L 17 260.5 L 9.5 270 L 11 267.5 L 18.5 258 L 29.5 250 Z "></path><path fill="rgb(254,176,14)" stroke="rgb(254,176,14)" stroke-width="1" opacity="0.2901960784313726" d="M 8.5 271 L 8 272.5 L 4.5 280 L 4 278.5 L 8.5 271 Z "></path><path fill="rgb(254,176,14)" stroke="rgb(254,176,14)" stroke-width="1" opacity="0.2901960784313726" d="M 3.5 281 L 4 282.5 L 2.5 286 L 2 283.5 L 3.5 281 Z "></path><path fill="rgb(254,176,14)" stroke="rgb(254,176,14)" stroke-width="1" opacity="0.2901960784313726" d="M 0.5 291 L 1 294.5 L 0 294.5 L 0.5 291 Z "></path><path fill="rgb(254,176,14)" stroke="rgb(254,176,14)" stroke-width="1" opacity="0.2901960784313726" d="M 0.5 309 L 1 312.5 L 0 312.5 L 0.5 309 Z "></path><path fill="rgb(254,176,14)" stroke="rgb(254,176,14)" stroke-width="1" opacity="0.2901960784313726" d="M 120.5 310 L 121 312.5 L 120 312.5 L 120.5 310 Z "></path><path fill="rgb(254,176,14)" stroke="rgb(254,176,14)" stroke-width="1" opacity="0.2901960784313726" d="M 2.5 318 L 4 322.5 L 3 322.5 L 2.5 318 Z "></path><path fill="rgb(254,176,14)" stroke="rgb(254,176,14)" stroke-width="1" opacity="0.2901960784313726" d="M 4.5 324 L 9 332.5 L 7 331.5 L 4.5 324 Z "></path><path fill="rgb(254,176,14)" stroke="rgb(254,176,14)" stroke-width="1" opacity="0.2901960784313726" d="M 115.5 327 L 116 328.5 L 114 329.5 L 115.5 327 Z "></path><path fill="rgb(254,176,14)" stroke="rgb(254,176,14)" stroke-width="1" opacity="0.2901960784313726" d="M 112.5 333 L 111.5 335 L 112.5 333 Z "></path><path fill="rgb(254,176,14)" stroke="rgb(254,176,14)" stroke-width="1" opacity="0.2901960784313726" d="M 9.5 334 L 18.5 345 L 30 353.5 L 28.5 353 L 15 342.5 L 9.5 334 Z "></path><path fill="rgb(254,176,14)" stroke="rgb(254,176,14)" stroke-width="1" opacity="0.2901960784313726" d="M 110.5 336 L 108.5 339 L 110.5 336 Z "></path><path fill="rgb(254,176,14)" stroke="rgb(254,176,14)" stroke-width="1" opacity="0.2901960784313726" d="M 107.5 340 L 99.5 349 L 90.5 355 L 91.5 353 Q 101.2 348.2 107.5 340 Z "></path><path fill="rgb(254,176,14)" stroke="rgb(254,176,14)" stroke-width="1" opacity="0.2901960784313726" d="M 31.5 354 L 36 356.5 L 34.5 357 L 31.5 354 Z "></path><path fill="rgb(254,176,14)" stroke="rgb(254,176,14)" stroke-width="1" opacity="0.2901960784313726" d="M 37.5 357 L 41 358.5 L 39.5 359 L 37.5 357 Z "></path><path fill="rgb(254,176,14)" stroke="rgb(254,176,14)" stroke-width="1" opacity="0.2901960784313726" d="M 83.5 357 L 85 357.5 L 81.5 359 L 81.5 358 L 83.5 357 Z "></path><path fill="rgb(254,176,14)" stroke="rgb(254,176,14)" stroke-width="1" opacity="0.2901960784313726" d="M 74.5 360 L 77 360.5 L 74.5 361 L 74.5 360 Z "></path><path fill="rgb(254,176,14)" stroke="rgb(254,176,14)" stroke-width="1" opacity="0.2901960784313726" d="M 50.5 361 L 54 361.5 L 50.5 362 L 50.5 361 Z "></path><path fill="rgb(254,176,14)" stroke="rgb(254,176,14)" stroke-width="1" opacity="0.2901960784313726" d="M 68.5 361 L 72 361.5 L 68.5 362 L 68.5 361 Z "></path><path fill="rgb(0,199,173)" stroke="rgb(0,199,173)" stroke-width="1" opacity="0.9921568627450981" d="M 493.5 122 L 500.5 122 L 509 127.5 L 512 133.5 L 512 379.5 L 511 384.5 L 512 385.5 L 512 398.5 Q 507.5 425.5 489.5 439 L 471.5 449 L 457.5 452 L 446.5 452 Q 445 449.5 439.5 451 L 423.5 445 Q 412.6 438.9 405 429.5 Q 397.8 420.7 394 408.5 L 392 398.5 L 392 385.5 Q 396.5 358.5 414.5 345 Q 423.3 337.8 435.5 334 L 445.5 332 L 458.5 332 L 471.5 335 L 481.5 340 L 482 217 L 392 242 L 392 151.5 L 394.5 151 L 493.5 122 Z "></path><path fill="rgb(0,199,173)" stroke="rgb(0,199,173)" stroke-width="1" opacity="0.9921568627450981" d="M 298.5 269 L 302 269.5 L 302 439.5 L 301 439.5 Q 295.3 416.2 278.5 404 L 272 399.5 L 272 277.5 L 273.5 276 L 280.5 275 L 298.5 269 Z "></path><path fill="rgb(0,237,207)" stroke="rgb(0,237,207)" stroke-width="1" opacity="0.996078431372549" d="M 389.5 152 L 392 152.5 L 392 243 L 272.5 277 L 272 194.5 Q 273.8 187.3 279.5 184 L 389.5 152 Z "></path><path fill="rgb(0,237,207)" stroke="rgb(0,237,207)" stroke-width="1" opacity="0.996078431372549" d="M 236.5 392 L 247.5 392 L 266.5 397 Q 281 403.5 290 415.5 Q 297.4 425.1 301 438.5 L 302 456.5 L 300 467.5 L 295 480.5 Q 289 491.4 279.5 499 Q 270.5 506.5 257.5 510 L 246.5 512 L 237.5 512 L 226.5 510 L 213.5 505 Q 203.2 499.4 196 490.5 Q 187.7 481.3 184 467.5 L 182 456.5 L 182 446.5 L 184 436.5 L 189 423.5 Q 195.1 412.6 204.5 405 L 220.5 396 L 236.5 392 Z "></path></svg>